<svg width="425" height="216" viewBox="0 0 425 216" fill="none" xmlns="http://www.w3.org/2000/svg">
<path d="M98.59 208.24C98.59 208.24 104.18 205.4 104.27 200.43C104.36 195.46 99.16 192.85 99.16 192.85L85.13 192.91V214.91H91.13V207.91L97.13 214.91L104.51 214.81L98.59 208.24ZM97.28 203.64H91.05L91.11 197.83H97.28C98.0197 198.616 98.4315 199.655 98.4315 200.735C98.4315 201.815 98.0197 202.854 97.28 203.64Z" fill="white"/>
<path d="M115.18 210.11C115.02 211.19 112.91 210.97 112.91 210.97C112.5 211.02 112.085 210.973 111.696 210.834C111.308 210.694 110.958 210.465 110.674 210.166C110.39 209.866 110.18 209.504 110.061 209.109C109.943 208.714 109.918 208.296 109.99 207.89L121.4 207.84C121.46 207.439 121.49 207.035 121.49 206.63C121.489 204.446 120.674 202.341 119.205 200.726C117.735 199.11 115.716 198.101 113.542 197.894C111.368 197.687 109.195 198.297 107.447 199.606C105.699 200.915 104.502 202.829 104.089 204.973C103.675 207.117 104.076 209.339 105.213 211.204C106.349 213.068 108.14 214.443 110.235 215.058C112.331 215.674 114.58 215.486 116.545 214.533C118.509 213.579 120.048 211.927 120.86 209.9L115.18 210.11ZM113.07 201.91C113.467 201.9 113.861 201.971 114.229 202.119C114.598 202.266 114.932 202.487 115.213 202.767C115.493 203.048 115.714 203.382 115.861 203.751C116.009 204.119 116.08 204.513 116.07 204.91L110.01 204.8C110.005 204.404 110.082 204.012 110.236 203.648C110.39 203.284 110.618 202.955 110.906 202.684C111.194 202.412 111.534 202.203 111.907 202.07C112.279 201.937 112.675 201.882 113.07 201.91Z" fill="white"/>
<path d="M134.18 205.83C133.166 205.343 132.064 205.064 130.94 205.01C128.32 205.01 128.08 203.6 128.08 203.6C128.08 203.6 128.18 202.46 130.08 202.46C130.649 202.462 131.21 202.585 131.728 202.821C132.245 203.058 132.706 203.402 133.08 203.83L133.97 204.09L134.04 203.79L136.29 200.56C136.29 200.56 135.29 197.93 129.19 197.97C123.09 198.01 122.19 203.08 122.19 203.08V205.13C122.182 205.514 122.28 205.894 122.472 206.227C122.664 206.56 122.943 206.834 123.28 207.02C124.851 207.986 126.61 208.606 128.44 208.84C131.06 208.89 131.14 210.42 131.14 210.42C131.14 210.42 130.96 211.74 129.04 211.7C128.034 211.666 127.058 211.343 126.23 210.77C125.922 210.554 125.586 210.382 125.23 210.26L124.23 209.94L123.52 210.04L121.94 213.52C121.94 213.52 124.34 215.82 129.27 215.82C134.2 215.82 136.53 214.53 137.17 211C137.59 208.28 135.27 206.5 134.18 205.83Z" fill="white"/>
<path d="M139.18 192.91L145.13 192.79L145.19 198.95L149.41 198.89V202.89L144.99 202.96V208.07C144.99 208.07 145.32 210.57 149.15 210.57V214.9C149.15 214.9 139.04 216.01 139 209.96L138.93 202.96H137.03V198.96H139.14L139.18 192.91Z" fill="white"/>
<path d="M167.13 198.91L162.13 198.97L162.18 199.9L161.24 200.06C161.24 200.06 160.93 198.86 157.02 198.91C153.11 198.96 150.13 201.52 150.13 206.68C150.13 211.84 153.79 214.92 157.13 214.92C160.47 214.92 161.13 213.36 161.13 213.36L161.18 214.87H167.13V198.91ZM159.13 211.01C157.38 211.01 155.95 209.06 155.95 206.66C155.95 204.26 157.38 202.31 159.13 202.31C160.88 202.31 162.32 204.26 162.32 206.66C162.32 209.06 160.8 211 159.04 211L159.13 211.01Z" fill="white"/>
<path d="M324.95 198.73L319.95 198.78L320 199.72L319.06 199.88C319.06 199.88 318.75 198.68 314.84 198.73C310.93 198.78 307.95 201.34 307.95 206.5C307.95 211.66 311.6 214.74 314.95 214.74C318.3 214.74 318.95 213.18 318.95 213.18L319 214.69H324.95V198.73ZM316.95 210.83C315.2 210.83 313.77 208.88 313.77 206.48C313.77 204.08 315.2 202.13 316.95 202.13C318.7 202.13 320.14 204.07 320.14 206.48C320.14 208.89 318.67 210.83 316.91 210.83H316.95Z" fill="white"/>
<path d="M218.52 198.73L213.52 198.78L213.57 199.72L212.63 199.88C212.63 199.88 212.32 198.68 208.41 198.73C204.5 198.78 201.52 201.34 201.52 206.5C201.52 211.66 205.17 214.74 208.52 214.74C211.87 214.74 212.52 213.18 212.52 213.18L212.57 214.69H218.52V198.73ZM210.52 210.83C208.77 210.83 207.34 208.88 207.34 206.48C207.34 204.08 208.77 202.13 210.52 202.13C212.27 202.13 213.7 204.07 213.7 206.48C213.7 208.89 212.25 210.83 210.49 210.83H210.52Z" fill="white"/>
<path d="M181.04 198.91V208.82C181.04 208.82 180.75 209.92 178.09 209.92C175.43 209.92 175.09 208.82 175.09 208.82V198.87H170.09V211.8C170.09 211.8 170.87 214.87 174.92 214.87C178.97 214.87 180.43 213.5 180.43 213.5L181.13 212.91V214.91H186.13V198.91H181.04Z" fill="white"/>
<path d="M200.11 203.94V198.9H196.94L194.25 201.46L193.14 201.5V198.93H188.1L188.09 214.91H194.1L194.14 206.91L200.11 203.94Z" fill="white"/>
<path d="M240.23 193.05L246.18 192.93L246.24 199.08L250.47 199.02V203.02L246.05 203.1V208.21C246.05 208.21 246.39 210.71 250.22 210.71V215.04C250.22 215.04 240.11 216.15 240.07 210.1L240 203.1H238.13V199.1H240.23V193.05Z" fill="white"/>
<path d="M226.13 214.85V204.91C226.13 204.91 226.42 203.8 229.08 203.8C231.74 203.8 232.08 204.91 232.08 204.91V214.86H237.08V201.96C237.08 201.96 236.3 198.89 232.25 198.89C228.2 198.89 226.74 200.27 226.74 200.27L226.13 200.91V198.91H221.13V214.91L226.13 214.85Z" fill="white"/>
<path d="M270.22 200.91L267.75 200.97C267.419 201.027 267.08 201.012 266.755 200.926C266.431 200.84 266.129 200.685 265.869 200.472C265.61 200.259 265.399 199.993 265.252 199.691C265.105 199.39 265.024 199.06 265.015 198.724C265.006 198.389 265.07 198.055 265.202 197.746C265.333 197.438 265.53 197.161 265.778 196.935C266.026 196.708 266.32 196.538 266.639 196.436C266.959 196.333 267.297 196.3 267.63 196.34C269.91 196.34 270.1 198.93 270.1 198.93L275.98 198.87V198.24C275.98 198.24 276.39 191.5 267.98 191.44C262.18 191.44 259.89 194.84 259.03 196.99C258.605 198.052 258.525 199.22 258.8 200.33C259.011 201.24 259.406 202.098 259.96 202.85C260.11 203.041 260.196 203.273 260.207 203.515C260.218 203.757 260.152 203.997 260.02 204.2C259.165 205.396 258.657 206.804 258.55 208.27C258.49 210.81 262.49 215.41 267.39 215.41C272.29 215.41 273.32 213.53 273.32 213.53L275.26 214.93H278.26V210.85L276.05 208.85C275.849 207.897 275.849 206.913 276.05 205.96H278.14V201.96L276.19 201.87L270.22 200.91ZM267.88 211.05C267.336 211.025 266.812 210.84 266.373 210.52C265.933 210.199 265.597 209.757 265.406 209.247C265.216 208.737 265.179 208.183 265.3 207.652C265.422 207.122 265.696 206.639 266.09 206.263C266.483 205.887 266.978 205.635 267.514 205.538C268.049 205.441 268.601 205.503 269.102 205.716C269.602 205.93 270.029 206.286 270.329 206.74C270.629 207.194 270.789 207.726 270.79 208.27C270.751 209.011 270.424 209.707 269.878 210.21C269.332 210.713 268.612 210.982 267.87 210.96L267.88 211.05Z" fill="white"/>
<path d="M339.16 203.97V198.94H335.99L333.3 201.5L332.19 201.53V198.97H327.15V214.95H333.16L333.19 206.95L339.16 203.97Z" fill="white"/>
<path d="M303.43 202.97C304.73 201.651 305.487 199.891 305.55 198.04C305.55 195.1 301.07 192.97 301.07 192.97H288.13L288.04 214.11H302.21C304.48 214.11 306.56 210.4 306.52 207.64C306.48 204.88 303.43 202.97 303.43 202.97ZM293.13 196.91H299C299 196.91 300.25 197.14 300.2 199.45C300.15 201.76 299.05 201.86 299.05 201.86L293.13 201.91V196.91ZM299.45 210.04H293.2V205.1L299.4 205.05C299.4 205.05 300.71 205.28 300.66 207.59C300.61 209.9 299.47 210.07 299.47 210.07L299.45 210.04Z" fill="white"/>
<path d="M367.36 41.17C362.44 50.82 360.81 61.24 360.24 71.9C360.13 73.9 360.24 75.9 360.04 77.9C359.39 85.04 355.65 88.47 349.15 87.95C342.07 87.39 340.15 84.95 340.46 77.03C340.46 76.53 340.46 76.03 340.46 74.16C335.26 80.99 332.39 87.47 331.61 94.93C331.46 96.32 332.41 98.25 330.74 98.99C328.65 99.91 327.38 97.91 326.19 96.7C320.96 91.4 319.54 84.7 319.42 77.53C319.29 69.88 320.88 62.53 323.25 54.73C325.77 56.78 326.36 59.92 329.65 60.38C335.29 61.16 339.76 58.84 341.57 53.14C345.57 40.66 349.57 28.21 357.14 17.32C361.781 10.3802 367.828 4.49306 374.89 0.0400391C374.89 3.63004 375.18 6.54004 374.84 9.37004C373.58 19.88 377.75 28.81 382.77 37.5C384.67 40.79 387.77 42.14 391.5 42.36C395.23 42.58 397.4 40.8 398.11 37.13C398.35 35.92 397.61 34.13 399.18 33.64C400.75 33.15 401.77 34.87 402.74 35.87C412.35 45.76 419.84 56.93 423.39 70.45C423.614 71.0387 423.906 71.5992 424.26 72.12V90.04C420.65 102.41 413.31 112.14 403.09 119.83C395.46 125.57 386.26 127.28 377.33 129.68C372.73 131.22 367.91 129.68 363.25 130.68C362.919 130.728 362.581 130.673 362.283 130.523C361.984 130.373 361.739 130.134 361.58 129.84C361.04 128.91 361.75 128.33 362.26 127.72C362.574 127.329 362.994 127.037 363.47 126.88C372.47 124.03 379.8 118.46 386.56 112.08C388.953 108.198 390.408 103.812 390.811 99.269C391.213 94.7265 390.552 90.1527 388.88 85.91C386.26 78.74 384.31 71.41 384.63 62.45C378.76 70.05 378.98 77.84 379.35 85.45C377.11 86.19 376.74 84.52 376.05 83.59C369.8 75.18 368.58 65.42 368.61 55.35C368.61 53.35 368.61 51.35 368.61 49.35C369.34 46.95 368.89 44.5 368.92 42.07C368.89 41.21 368.46 40.52 367.36 41.17Z" fill="white"/>
<path d="M64.13 140.91C70.22 142.04 75.55 141.91 80.34 144.48C88.48 148.82 94.34 155.06 94.71 164.41C94.96 171.53 91.99 178.27 88.01 184.31C78.58 198.64 65.35 207.77 48.87 212.12C44.8377 213.254 40.5673 213.226 36.55 212.04C32.35 210.71 30.13 207.04 31.34 203.38C32.72 199.18 35.78 199.69 39.34 200.23C50.34 201.91 58.91 196.56 66.73 189.83C71.92 185.36 75.5 179.59 78.47 173.39C80.99 168.1 81.01 163.07 77.3 158.63C73.85 154.5 68.78 153.63 63.68 154.12C59.68 154.52 55.78 154.95 51.8 155.01C50.0416 155.122 48.294 154.663 46.818 153.7C45.3421 152.738 44.2168 151.324 43.61 149.67C42.8546 148.085 42.5845 146.312 42.8336 144.573C43.0827 142.835 43.8399 141.209 45.01 139.9C48.2 135.9 52.53 133.47 56.66 130.72C59.83 128.62 63.05 126.56 66.14 124.34C67.01 123.72 68.14 122.65 67.43 121.44C67.1358 121.047 66.7637 120.719 66.337 120.477C65.9102 120.234 65.4381 120.082 64.95 120.03C55.72 119.28 46.48 118.72 37.26 117.93C34.75 117.71 34.95 119.17 35.06 120.63C36.13 135.83 34.53 151.11 36.3 166.28C36.73 170.03 37.59 173.61 41.15 176.19C43.44 177.85 45.96 180.6 43.79 183.81C41.52 187.18 38.06 186.51 34.79 185.03C27.79 181.82 25.19 175.63 24.51 168.64C23.61 159.27 23.17 149.86 22.71 140.46C22.3833 133.667 22.2333 126.873 22.26 120.08C22.26 117.42 21.54 116.36 18.77 115.96C13.6649 115.355 8.67552 114.008 3.96 111.96C0.7 110.46 -1.13 105.96 0.659997 102.89C2.35 99.99 5.35 99.46 8.5 100.51C20.73 104.62 33.5 104.77 46.17 106.06C54.07 106.87 62.07 106.45 69.9 108.06C78.82 109.86 84.03 115.37 82.9 122.15C82.08 127.04 78.43 130.15 74.9 133.15C71.72 135.65 68.29 137.91 64.13 140.91Z" fill="white"/>
<path d="M152.13 150.91C157.53 145.83 161.8 139.63 167.8 135.13C172.32 131.76 176.8 128.49 182.35 126.77C187.44 125.18 191.87 126.6 195.99 129.32C198.99 131.32 200.75 134.01 199.14 137.81C197.53 141.61 194.01 142.09 191.14 140.87C183.42 137.53 178.56 141.81 173.57 146.35C169.27 150.25 165.522 154.717 162.43 159.63C160.582 162.36 159.325 165.446 158.74 168.69C165.37 164.8 169.25 159.35 174.31 155.31C177.53 152.73 180.46 149.81 184.24 147.96C190.12 145.08 195 147.8 195.45 154.3C195.52 155.45 195.64 156.6 195.66 157.76C195.74 162.42 198.13 164.09 202.66 163.81C206.29 163.47 209.864 162.68 213.3 161.46C215.03 160.91 216.86 159.71 218.47 159.95C224.19 160.78 226.18 156.77 228.53 153.01C230.19 150.35 232.02 147.8 233.53 145.08C234.05 144.16 235.24 143.08 234.53 141.93C233.67 140.61 232.42 141.71 231.39 141.93C227.86 142.8 224.3 143.74 220.65 143.54C217.75 143.38 215.13 142.31 213.8 139.39C213.229 138.184 213.008 136.843 213.16 135.517C213.311 134.192 213.831 132.935 214.66 131.89C216.02 129.89 218.21 128.63 220.15 129.27C225.44 131.02 230.29 129.2 235.3 128.34C236.432 128.124 237.579 127.997 238.73 127.96C249.53 127.76 253.22 133.71 248.11 143.27C244.41 150.21 241.4 157.56 236.11 163.61C235.777 163.926 235.578 164.358 235.556 164.816C235.533 165.274 235.689 165.724 235.99 166.07C239.78 166.07 243.28 164.3 246.37 162.38C251.51 159.18 257.37 157.9 262.75 155.45C263.955 154.847 265.319 154.637 266.65 154.848C267.98 155.06 269.211 155.683 270.17 156.63C274.27 160.63 273.6 165.13 268.17 167.63C261.551 170.708 254.683 173.221 247.64 175.14C238.43 177.64 229.26 179.2 219.73 175.7C215.749 174.436 211.435 174.751 207.68 176.58C198.95 180.58 189.22 177.74 185.16 169.09C183.16 164.93 181.75 164.8 178.82 167.87C175.62 171.23 172.28 174.47 168.82 177.59C162.36 183.45 155.56 184.66 150.33 181.07C145.76 177.94 144.07 170.07 146.56 162.86C147.56 160.08 148.8 157.4 149.93 154.67C150.69 153.42 150.32 151.58 152.13 150.91Z" fill="white"/>
<path d="M286.68 159.27C293.44 156.52 298.1 151.95 303.44 148.42C307.26 145.89 310.68 142.79 315.38 141.59C319.85 140.45 322.38 142.02 323.94 146C324.12 146.46 324.33 146.91 324.5 147.38C327.69 156.25 330.3 157.13 338.25 151.76C340.85 150 343.08 147.71 345.67 145.93C348.26 144.15 351.23 143.43 353.77 146.15C356.31 148.87 356.56 152.15 353.83 155C346.22 162.83 337.23 168 326.03 168.5C320.3 168.75 315.89 166.29 313.92 160.91C312.61 157.33 311.08 158.68 309.23 159.91C303.58 163.67 298.07 167.67 292.23 171.2C280.74 178.2 274.65 172.06 273.33 160.84C272.42 153.02 275.51 146.23 280.56 140.37C287.259 132.782 295.174 126.361 303.98 121.37C309.98 117.84 318.66 118.83 322.98 123.17C325.47 125.68 326.33 128.36 324.58 131.67C322.83 134.98 319.93 135.84 316.58 134.58C312.78 133.12 309.44 133.93 306.18 135.89C298.85 140.32 292.63 145.89 288.28 153.37C287.685 154.367 287.186 155.419 286.79 156.51C286.653 157.423 286.616 158.349 286.68 159.27Z" fill="white"/>
<path d="M364.35 132.01C376.41 139.75 379.35 150.61 372.67 163.58C368.691 171.65 362.804 178.628 355.52 183.91C351.906 186.616 347.432 187.92 342.93 187.58C338.46 187.28 335.71 184.35 336.22 180.25C336.81 175.47 340.99 171.33 344.76 172.68C348.76 174.11 351.24 172.43 353.45 169.97C357.08 165.91 360.57 161.73 362.68 156.54C365.74 149.04 364.03 144.54 356.26 141.98C351.26 140.32 345.95 139.49 340.89 137.98C332.32 135.36 330.15 128.71 335.45 121.43C337.027 119.085 338.956 116.997 341.17 115.24C350.99 108.09 361.82 103.48 374.17 103.05C376.159 102.882 378.157 103.259 379.948 104.14C381.74 105.02 383.258 106.372 384.34 108.05C385.73 115.57 382.52 119.25 375.08 117.87C367.64 116.49 361 118.4 354.64 121.96C353.42 122.65 351.55 123.13 351.77 124.96C351.96 126.44 353.68 126.63 354.87 127.08C358.25 128.22 361.62 129.5 364.35 132.01Z" fill="white"/>
<path d="M147.63 153.58C134.88 149.71 126.57 158.44 117.42 164.46C115.01 166.05 113.94 169.21 113.53 172.25C113.16 175.07 112.16 177.78 109.09 178.03C107.663 178.109 106.247 177.739 105.041 176.971C103.836 176.204 102.901 175.077 102.37 173.75C100.66 169.75 98.93 165.84 98.94 161.22C98.94 157.31 99.26 153.33 98.28 149.38C97.45 146 101.07 140.67 104.46 139.72C107.85 138.77 111.11 139.65 112.41 142.94C113.41 145.38 112.92 148.38 113.14 151.73C119.63 147.73 125.78 143.9 132.68 141.59C135.68 140.59 138.68 139.53 141.81 139.44C148.87 139.24 152.1 142.55 151.96 149.58C151.13 151.55 150.33 153.6 147.63 153.58Z" fill="white"/>
</svg>